<svg width="140" height="35" viewBox="0 0 140 35" fill="none" xmlns="http://www.w3.org/2000/svg">
<path d="M55.25 20.3185L62.9751 29.7344H56.875L50 21.0868V29.7344H44.9999V4.95583H50V19.5257L56.35 12.3893H62.7249L55.25 20.3185ZM35.2499 11.8939C34.1552 11.9101 33.0807 12.1891 32.1185 12.7069C31.1563 13.2248 30.3351 13.966 29.7251 14.8672V12.3893H25.0001V29.7344H29.9999V21.6318C29.9343 21.0437 29.9914 20.4485 30.1679 19.8832C30.3444 19.3179 30.6363 18.7947 31.0256 18.3461C31.4149 17.8975 31.8931 17.5331 32.4306 17.2756C32.9682 17.0182 33.5534 16.8731 34.1499 16.8494C37.05 16.8494 37.5 19.6743 37.5 21.6318V29.7344H42.5001V20.5415C42.5001 15.0903 40.6749 11.8939 35.35 11.8939H35.2499ZM79.9999 21.4584C80.019 21.8215 80.019 22.1855 79.9999 22.5487H66.8749V22.7221C67.088 23.7554 67.6655 24.6797 68.504 25.329C69.3425 25.9784 70.3869 26.3104 71.45 26.2654C72.2934 26.3018 73.1355 26.1691 73.9259 25.8754C74.7163 25.5816 75.4388 25.1328 76.0501 24.5558L79.3751 27.0337C78.3212 28.0996 77.0537 28.9348 75.6542 29.4853C74.2547 30.0359 72.7544 30.2896 71.2499 30.2301C70.0039 30.3082 68.7556 30.1203 67.5892 29.6792C66.4228 29.2381 65.3655 28.554 64.4887 27.6732C63.6119 26.7924 62.936 25.7353 62.5066 24.5734C62.0773 23.4115 61.9046 22.1718 62 20.938C61.9744 19.7201 62.2022 18.51 62.6692 17.3831C63.1361 16.2563 63.8322 15.2368 64.7141 14.3883C65.596 13.5398 66.6448 12.8804 67.7951 12.4512C68.9454 12.0221 70.1725 11.8324 71.4 11.8939C76.1001 11.8939 79.9999 15.1895 79.9999 21.4584ZM75.3501 19.3274C75.3317 18.8365 75.2127 18.3546 75.0003 17.9109C74.7879 17.4671 74.4865 17.0709 74.1146 16.7463C73.7427 16.4217 73.308 16.1756 72.8371 16.023C72.3661 15.8703 71.8687 15.8143 71.3751 15.8583C69.1767 15.6228 67.1858 17.1576 66.8749 19.3274H75.3501ZM5.00008 4.95583H0V29.7344H15V24.7791H5.00008V4.95583ZM95.0001 4.95583H99.9999V29.7344H95.2749V27.9999C94.6749 28.7326 93.9103 29.3159 93.0421 29.7032C92.1739 30.0904 91.2263 30.2709 90.2751 30.2301C89.1131 30.2006 87.9694 29.9357 86.9144 29.452C85.8594 28.9682 84.9153 28.2757 84.1403 27.417C83.3652 26.5583 82.7756 25.5515 82.4075 24.4586C82.0395 23.3658 81.9008 22.2098 82.0001 21.0619C81.882 19.9123 82.0067 18.751 82.3662 17.6517C82.7257 16.5525 83.312 15.5395 84.088 14.6772C84.864 13.8148 85.8126 13.122 86.8735 12.6428C87.9343 12.1637 89.0842 11.9086 90.25 11.8939C91.1182 11.8562 91.9854 11.9901 92.8009 12.2879C93.6165 12.5857 94.364 13.0414 95.0001 13.6284V4.95583ZM95.375 21.0619C95.4536 20.4897 95.4075 19.9075 95.2399 19.3544C95.0722 18.8014 94.7868 18.2904 94.403 17.856C94.0192 17.4216 93.5458 17.0738 93.0149 16.836C92.4839 16.5983 91.9077 16.4762 91.3251 16.4779C88.9334 16.65 87.121 18.6886 87.2501 21.0619C87.121 23.4352 88.9334 25.474 91.3251 25.6461C91.9078 25.6479 92.484 25.5257 93.015 25.288C93.5459 25.0502 94.0193 24.7024 94.4031 24.2679C94.7869 23.8334 95.0723 23.3225 95.24 22.7694C95.4076 22.2163 95.4537 21.6341 95.375 21.0619ZM20 4.46014C19.196 4.47143 18.4262 4.78469 17.8462 5.33667C17.2661 5.88865 16.919 6.63822 16.8749 7.43402C16.8749 9.14441 18.2741 10.5312 20 10.5312C21.726 10.5312 23.1246 9.14414 23.1246 7.43402C23.0804 6.63831 22.7333 5.88885 22.1533 5.33694C21.5734 4.78502 20.8037 4.47177 19.9998 4.46041L20 4.46014ZM17.5 29.7344H22.5001V12.3893H17.5V29.7344ZM140 2.47791V32.2124C140 32.8695 139.737 33.4998 139.268 33.9645C138.799 34.4292 138.163 34.6903 137.5 34.6903H107.5C106.837 34.6903 106.201 34.4292 105.732 33.9645C105.263 33.4998 105 32.8695 105 32.2124V2.47791C105 1.82073 105.263 1.19046 105.732 0.725764C106.201 0.261065 106.837 0 107.5 0L137.5 0C138.163 0 138.799 0.261065 139.268 0.725764C139.737 1.19046 140 1.82073 140 2.47791ZM115 12.3893H110V29.7344H115V12.3893ZM115.625 7.43374C115.625 5.72308 114.226 4.33628 112.5 4.33628C110.774 4.33628 109.375 5.72308 109.375 7.43374C109.375 9.14414 110.774 10.5309 112.5 10.5309C114.226 10.5309 115.625 9.14414 115.625 7.43374ZM135 20.5415C135 15.0903 133.175 11.8939 127.85 11.8939C126.738 11.894 125.644 12.1653 124.663 12.6838C123.682 13.2023 122.844 13.9522 122.225 14.8672V12.3893H117.5V29.7344H122.5V21.6318C122.434 21.0437 122.492 20.4485 122.668 19.8832C122.844 19.3179 123.136 18.7947 123.526 18.3461C123.915 17.8975 124.393 17.5331 124.931 17.2756C125.468 17.0182 126.053 16.8731 126.65 16.8494C129.55 16.8494 130 19.6743 130 21.6318V29.7344H135V20.5415Z" fill="#0A66C2"/>
</svg>
