<svg width="140" height="55" viewBox="0 0 140 55" fill="none" xmlns="http://www.w3.org/2000/svg">
<g clip-path="url(#clip0)">
<path d="M110.843 7.33938C110.516 7.33938 110.241 7.45268 110.102 7.67429C109.959 7.90331 109.981 8.19816 110.133 8.49652L113.807 14.7699C113.813 14.7822 113.813 14.7895 113.807 14.8004L108.034 24.8501C107.883 25.1462 107.891 25.4433 108.034 25.6725C108.172 25.8929 108.417 26.038 108.744 26.038H114.177C114.99 26.038 115.381 25.4971 115.659 25.0024C115.659 25.0024 121.305 15.1525 121.525 14.7699C121.503 14.7346 117.789 8.34424 117.789 8.34424C117.519 7.86919 117.11 7.33938 116.277 7.33938H110.843ZM86.9177 19.0641C78.486 19.0641 73.8589 23.9171 73.8589 32.7074V41.9654C73.8589 50.3609 77.9105 54.6341 85.9297 54.6341C92.4141 54.6341 97.6647 52.1335 98.0314 51.9542V35.3265C98.0314 34.8101 97.6598 34.4433 97.1363 34.4433H86.3928C85.8693 34.4433 85.4975 34.8102 85.4975 35.3265V39.5901C85.4975 40.1064 85.8694 40.4732 86.3928 40.4732H91.3941C91.415 40.4732 91.425 40.4829 91.425 40.5037V47.6908C91.425 47.7066 91.4077 47.7164 91.3941 47.7212C91.3706 47.731 89.0379 48.6044 86.1458 48.6044C82.3252 48.6044 80.4654 46.2656 80.4654 41.4783V32.7077C80.4654 30.2192 80.9618 28.3892 81.978 27.1346C83.0908 25.7618 84.7726 25.0942 87.1646 25.0942H88.2142C91.6867 25.0942 94.3688 25.8593 96.0866 26.4037C96.3532 26.4878 96.5977 26.4439 96.7657 26.3123C96.9373 26.1784 97.0436 25.9506 97.0436 25.673V21.5921C97.0436 21.1304 96.8139 20.871 96.1175 20.5262C95.2295 20.0879 92.7019 19.0645 88.3378 19.0645H86.9177V19.0641ZM1.15575 19.5208C0.906218 19.5208 0.712332 19.6158 0.600075 19.7949C0.4777 19.9886 0.479068 20.2566 0.600075 20.4954L9.42939 36.3617C9.43555 36.3727 9.43555 36.4117 9.42939 36.4226L0.106063 53.0809C-0.0163115 53.3209 -0.0163115 53.5876 0.106063 53.7813C0.21709 53.9603 0.412343 54.0554 0.661605 54.0554H6.68163C7.37076 54.0554 7.61647 53.6741 7.88569 53.1418L14.06 41.9347C14.0661 41.9226 14.0773 41.9043 14.0909 41.9043C14.1056 41.9043 14.1156 41.9225 14.1219 41.9347C14.1219 41.9347 20.3258 53.1406 20.3271 53.142C20.595 53.673 20.8112 54.0554 21.5002 54.0554H27.5511C27.8005 54.0554 27.9957 53.9603 28.1067 53.7813C28.1685 53.6838 28.1994 53.5644 28.1994 53.4464C28.1994 53.3269 28.1674 53.2016 28.1067 53.0809C28.1054 53.0783 18.7526 36.4226 18.7526 36.4226C18.7489 36.4165 18.7526 36.3983 18.7526 36.3921C18.7526 36.3859 18.7489 36.3666 18.7526 36.3616L27.6128 20.4952C27.6732 20.3746 27.7055 20.2491 27.7055 20.1298C27.7055 20.0117 27.6734 19.8911 27.6128 19.7948C27.5007 19.6157 27.3053 19.5207 27.0573 19.5207H21.0063C20.3172 19.5207 20.0715 19.9032 19.8023 20.4343L14.1219 30.8495C14.1156 30.8605 14.1058 30.8801 14.0909 30.8801C14.0773 30.8801 14.0662 30.8605 14.06 30.8495C14.06 30.8495 8.3808 20.4343 8.37957 20.4343C8.15478 19.9883 7.91769 19.5207 7.17551 19.5207H1.15575V19.5208ZM32.5833 19.5208C32.061 19.5208 31.688 19.8888 31.688 20.404V53.1723C31.688 53.6876 32.061 54.0555 32.5833 54.0555H37.3683C37.8907 54.0555 38.2637 53.6876 38.2637 53.1723V20.404C38.2637 19.8888 37.8907 19.5208 37.3683 19.5208H32.5833ZM45.3643 19.5208C44.842 19.5208 44.4382 19.8888 44.4382 20.404V53.1723C44.4382 53.6876 44.842 54.0555 45.3643 54.0555H50.1493C50.6717 54.0555 51.0447 53.6876 51.0447 53.1723V33.4077C51.0447 33.3907 51.0594 33.381 51.0756 33.3772C51.0916 33.3724 51.0991 33.393 51.1065 33.4077C51.1065 33.4077 61.4794 53.1407 61.4794 53.1421C61.6929 53.5633 62.0252 54.0555 62.6835 54.0555H67.6846C68.207 54.0555 68.58 53.6876 68.58 53.1723V20.404C68.58 19.8888 68.207 19.5208 67.6846 19.5208H62.8996C62.3773 19.5208 62.0043 19.8888 62.0043 20.404V40.1381C62.0043 40.1551 61.9895 40.1648 61.9734 40.1686C61.9574 40.1735 61.9202 40.1832 61.9116 40.1686C61.9116 40.1686 51.5387 20.4357 51.5387 20.4345C51.3117 19.99 51.0768 19.521 50.3346 19.521H45.3644L45.3643 19.5208Z" fill="#005A5F"/>
<path d="M133.669 2.73212e-06C132.858 2.73212e-06 132.506 0.504456 132.215 1.02078C132.215 1.02078 120.509 21.4979 120.124 22.1703C120.144 22.2069 127.845 36.1426 127.845 36.1426C128.114 36.6175 128.53 37.1632 129.362 37.1632H134.789C135.117 37.1632 135.372 37.0414 135.511 36.8209C135.655 36.592 135.651 36.2897 135.5 35.9927L127.84 22.1872C127.836 22.182 127.834 22.1758 127.834 22.1695C127.834 22.1632 127.836 22.157 127.84 22.1518L139.87 1.16915C140.021 0.873219 140.024 0.570952 139.881 0.34206C139.742 0.12153 139.486 -0.000267029 139.158 -0.000267029H133.669V2.73212e-06Z" fill="#D4D600"/>
</g>
<defs>
<clipPath id="clip0">
<rect width="140" height="54.6341" fill="white"/>
</clipPath>
</defs>
</svg>
